HIERARCHY
ROOT Hips
{
	OFFSET 0.000000 0.000000 0.000000
	CHANNELS 6 Xposition Yposition Zposition Xrotation Yrotation Zrotation
	JOINT LeftUpLeg_virtual
	{
		OFFSET 0.000000 0.000000 0.000000
		CHANNELS 3 Xrotation Yrotation Zrotation
		JOINT LeftUpLeg
		{
			OFFSET 10.205400 -3.823500 0.155100
			CHANNELS 3 Xrotation Yrotation Zrotation
			JOINT LeftLeg
			{
				OFFSET 0.708757 -12.982077 0.567790
				CHANNELS 3 Xrotation Yrotation Zrotation
				JOINT LeftFoot
				{
					OFFSET -0.708756 -10.717838 -2.184338
					CHANNELS 3 Xrotation Yrotation Zrotation
					JOINT LeftToeBase
					{
						OFFSET 0.108149 -7.191104 7.560241
						CHANNELS 3 Xrotation Yrotation Zrotation
						JOINT LeftToe_End
						{
							OFFSET 0.070230 0.081724 4.490308
							CHANNELS 3 Xrotation Yrotation Zrotation
							End Site
							{
								OFFSET 0 0 0
							}
						}
					}
				}
			}
		}
	}
	JOINT RightUpLeg_virtual
	{
		OFFSET 0.000000 0.000000 0.000000
		CHANNELS 3 Xrotation Yrotation Zrotation
		JOINT RightUpLeg
		{
			OFFSET -10.205400 -3.823500 0.005500
			CHANNELS 3 Xrotation Yrotation Zrotation
			JOINT RightLeg
			{
				OFFSET -0.708756 -12.982134 0.610632
				CHANNELS 3 Xrotation Yrotation Zrotation
				JOINT RightFoot
				{
					OFFSET 0.708754 -10.717769 -1.945823
					CHANNELS 3 Xrotation Yrotation Zrotation
					JOINT RightToeBase
					{
						OFFSET -0.108140 -7.191069 7.372968
						CHANNELS 3 Xrotation Yrotation Zrotation
						JOINT RightToe_End
						{
							OFFSET -0.070227 0.081735 4.479403
							CHANNELS 3 Xrotation Yrotation Zrotation
							End Site
							{
								OFFSET 0 0 0
							}
						}
					}
				}
			}
		}
	}
	JOINT Spine_virtual
	{
		OFFSET 0.000000 0.000000 0.000000
		CHANNELS 3 Xrotation Yrotation Zrotation
		JOINT Spine
		{
			OFFSET 0.000000 6.876099 0.125700
			CHANNELS 3 Xrotation Yrotation Zrotation
			JOINT Spine1
			{
				OFFSET 0.000000 5.730043 0.104720
				CHANNELS 3 Xrotation Yrotation Zrotation
				JOINT Spine1_split
				{
					OFFSET 0.000000 5.730043 0.104720
					CHANNELS 3 Xrotation Yrotation Zrotation
					JOINT Spine2
					{
						OFFSET 0.000000 5.730043 0.104720
						CHANNELS 3 Xrotation Yrotation Zrotation
						JOINT Neck_virtual
						{
							OFFSET 0.000000 0.000000 0.000000
							CHANNELS 3 Xrotation Yrotation Zrotation
							JOINT Neck
							{
								OFFSET 0.000000 10.314075 0.188496
								CHANNELS 3 Xrotation Yrotation Zrotation
								JOINT Head
								{
									OFFSET 0.000000 7.643700 -2.377400
									CHANNELS 3 Xrotation Yrotation Zrotation
									JOINT HeadTop_End
									{
										OFFSET 0.000000 43.788605 -13.619600
										CHANNELS 3 Xrotation Yrotation Zrotation
										End Site
										{
											OFFSET 0 0 0
										}
									}
								}
							}
						}
						JOINT LeftShoulder_virtual
						{
							OFFSET 0.000000 0.000000 0.000000
							CHANNELS 3 Xrotation Yrotation Zrotation
							JOINT LeftShoulder
							{
								OFFSET 2.196100 4.412489 0.087492
								CHANNELS 3 Xrotation Yrotation Zrotation
								JOINT LeftShoulder_split
								{
									OFFSET 2.196100 4.412489 0.087492
									CHANNELS 3 Xrotation Yrotation Zrotation
									JOINT LeftArm
									{
										OFFSET 8.771219 -2.981674 -0.026999
										CHANNELS 3 Xrotation Yrotation Zrotation
										JOINT LeftForeArm
										{
											OFFSET 8.512804 0.000000 -0.000000
											CHANNELS 3 Xrotation Yrotation Zrotation
											JOINT LeftHand
											{
												OFFSET 18.484802 0.000000 -0.000000
												CHANNELS 3 Xrotation Yrotation Zrotation
												End Site
												{
													OFFSET 0 0 0
												}
											}
										}
									}
								}
							}
						}
						JOINT RightShoulder_virtual
						{
							OFFSET 0.000000 0.000000 0.000000
							CHANNELS 3 Xrotation Yrotation Zrotation
							JOINT RightShoulder
							{
								OFFSET -2.196100 4.412496 0.070690
								CHANNELS 3 Xrotation Yrotation Zrotation
								JOINT RightShoulder_split
								{
									OFFSET -2.196100 4.412496 0.070690
									CHANNELS 3 Xrotation Yrotation Zrotation
									JOINT RightArm
									{
										OFFSET -8.771282 -2.981682 -0.094208
										CHANNELS 3 Xrotation Yrotation Zrotation
										JOINT RightForeArm
										{
											OFFSET -8.494598 0.000000 0.000000
											CHANNELS 3 Xrotation Yrotation Zrotation
											JOINT RightHand
											{
												OFFSET -18.483803 0.000000 0.000001
												CHANNELS 3 Xrotation Yrotation Zrotation
												End Site
												{
													OFFSET 0 0 0
												}
											}
										}
									}
								}
							}
						}
					}
				}
			}
		}
	}
}
MOTION
Frames: 7
Frame Time: 0.03333333
-0.356574 32.305706 -0.427387 0.000000 0.000000 0.000000 22.723104 0.376562 -5.442047 -62.308619 3.068318 -5.486288 80.665852 -0.285251 4.332644 2.295373 1.371761 6.731953 -30.225032 -1.421948 2.406392 0.000000 0.000000 0.000000 22.723104 0.376562 -5.442047 -26.738661 -11.658211 1.800530 27.993513 -4.120233 1.791291 -23.066413 -1.375229 3.813995 -2.186159 0.000000 -0.000001 0.000000 0.000000 0.000000 22.723104 0.376562 -5.442047 9.019564 2.325726 -0.908736 -0.486225 1.376179 -0.738722 0.000000 0.000000 0.000000 0.000000 0.000000 0.000000 -0.484346 1.393123 -0.752147 -12.183785 0.616445 0.895267 -13.200940 5.313709 -4.930407 0.000000 0.000000 0.000000 -0.484346 1.393123 -0.752147 0.800070 -1.053363 -19.763487 0.000000 0.000000 0.000000 13.552892 -1.213096 -48.473036 0.000046 -65.396855 0.000050 0.000000 0.000000 0.000000 -0.484346 1.393123 -0.752147 0.203549 7.873828 19.585077 0.000000 0.000000 0.000000 11.893553 -9.449217 48.231613 -0.000014 63.147011 0.000015 0.000000 0.000000 0.000000 
-0.854865 31.896458 1.498573 0.000000 0.000000 0.000000 23.345698 0.421964 -5.191554 -71.639375 5.404083 -6.684180 79.792654 -1.780298 4.434450 1.292242 2.827119 6.299603 -17.321093 -1.061927 3.680439 0.000000 0.000000 0.000000 23.345698 0.421964 -5.191554 -22.060428 -11.788924 3.135535 27.734524 -3.731086 1.486825 -28.242289 -1.589809 3.587887 -2.186158 0.000011 -0.000000 0.000000 0.000000 0.000000 23.345698 0.421964 -5.191554 8.573677 2.735138 -1.480368 -0.507242 1.525120 -0.724556 0.000000 0.000000 0.000000 0.000000 0.000000 0.000000 -0.469531 1.563698 -0.748854 -12.284905 0.430357 0.978022 -13.746419 5.022103 -4.445270 0.000000 0.000000 0.000000 -0.469531 1.563698 -0.748854 0.829629 -1.055385 -19.576789 0.000000 0.000000 0.000000 13.303895 -1.693173 -48.524345 0.000053 -65.794311 0.000044 0.000000 0.000000 0.000000 -0.469531 1.563698 -0.748854 0.162757 8.201816 19.240206 0.000000 0.000000 0.000000 12.013096 -10.084067 48.107427 -0.000008 65.513262 -0.000021 0.000000 0.000000 0.000000 
-1.352707 31.284348 3.485552 0.000000 0.000000 0.000000 24.098656 0.350176 -4.868715 -79.952200 7.306345 -7.537498 76.231372 -3.528432 4.264565 1.281396 4.962809 5.601065 -3.990385 -0.010907 0.842108 0.000000 0.000000 0.000000 24.098656 0.350176 -4.868715 -17.254482 -12.277672 4.432554 27.438620 -2.835542 0.923265 -33.641451 -1.780710 3.363762 -2.186157 0.000003 0.000003 0.000000 0.000000 0.000000 24.098656 0.350176 -4.868715 8.095122 3.170258 -2.085963 -0.542829 1.684606 -0.675693 0.000000 0.000000 0.000000 0.000000 0.000000 0.000000 -0.447993 1.765198 -0.714382 -12.390380 0.218419 1.057884 -14.330316 4.724050 -3.900794 0.000000 0.000000 0.000000 -0.447993 1.765198 -0.714382 0.892454 -1.054612 -19.190895 0.000000 0.000000 0.000000 13.312125 -1.847654 -48.806951 0.000052 -65.962190 0.000065 0.000000 0.000000 0.000000 -0.447993 1.765198 -0.714382 0.153508 8.439852 18.609318 0.000000 0.000000 0.000000 12.697655 -10.683120 48.523088 0.000005 68.139415 0.000023 0.000000 0.000000 0.000000 
-1.875559 30.474575 5.641220 0.000000 0.000000 0.000000 25.036448 0.069655 -4.361962 -86.678666 8.560653 -8.083802 69.388220 -4.985964 3.795804 2.350094 7.474131 4.701067 -5.677846 0.000008 0.000000 0.000000 0.000000 0.000000 25.036448 0.069655 -4.361962 -11.843834 -12.720431 5.616266 26.338541 -1.506219 0.335378 -38.834738 -1.972103 3.252475 -2.186155 0.000012 0.000001 0.000000 0.000000 0.000000 25.036448 0.069655 -4.361962 7.640650 3.607869 -2.802471 -0.598226 1.854914 -0.604954 0.000000 0.000000 0.000000 0.000000 0.000000 0.000000 -0.424869 2.005181 -0.664212 -12.484887 -0.017779 1.143297 -14.892599 4.460899 -3.292419 0.000000 0.000000 0.000000 -0.424869 2.005181 -0.664212 0.969101 -1.053106 -18.720060 0.000000 0.000000 0.000000 13.516202 -1.797127 -48.968058 0.000039 -66.033777 0.000038 0.000000 0.000000 0.000000 -0.424869 2.005181 -0.664212 0.157618 8.737080 17.902954 0.000000 0.000000 0.000000 13.636097 -11.213145 49.411535 -0.000003 70.485845 0.000005 0.000000 0.000000 0.000000 
-2.441887 29.623896 7.938158 0.000000 0.000000 0.000000 25.859293 -0.524769 -3.845239 -90.441561 9.705611 -7.896094 60.616085 -5.656641 2.946017 4.930964 9.099905 5.499515 -6.914189 0.000013 -0.000002 0.000000 0.000000 0.000000 25.859293 -0.524769 -3.845239 -4.765540 -12.176726 6.942792 21.781651 -0.388625 -0.152064 -41.491340 -2.359906 3.870030 -2.068705 0.000016 0.000002 0.000000 0.000000 0.000000 25.859293 -0.524769 -3.845239 7.353149 4.034925 -3.712417 -0.664971 2.028179 -0.527944 0.000000 0.000000 0.000000 0.000000 0.000000 0.000000 -0.415949 2.293456 -0.610942 -12.532822 -0.261059 1.253744 -15.280967 4.332199 -2.641997 0.000000 0.000000 0.000000 -0.415949 2.293456 -0.610942 1.049665 -1.050849 -18.225120 0.000000 0.000000 0.000000 13.770214 -1.648566 -49.100123 0.000046 -66.044009 0.000052 0.000000 0.000000 0.000000 -0.415949 2.293456 -0.610942 0.173716 9.035026 17.192206 0.000000 0.000000 0.000000 14.637845 -11.663036 50.477895 0.000032 72.666574 -0.000022 0.000000 0.000000 0.000000 
-2.984253 28.883478 10.218708 0.000000 0.000000 0.000000 26.295877 -1.415713 -3.562217 -91.399044 10.904078 -6.922761 52.710977 -5.510159 1.505913 8.178373 9.552214 9.027121 -5.846642 0.000005 0.000005 0.000000 0.000000 0.000000 26.295877 -1.415713 -3.562217 3.577572 -11.178124 9.155331 13.998809 -0.660204 -1.038528 -40.550246 -1.731799 3.068903 -3.614953 0.000019 0.000000 0.000000 0.000000 0.000000 26.295877 -1.415713 -3.562217 7.215157 4.452367 -4.702181 -0.738065 2.199288 -0.452089 0.000000 0.000000 0.000000 0.000000 0.000000 0.000000 -0.428173 2.606429 -0.561727 -12.542019 -0.493568 1.384176 -15.493893 4.321904 -2.007061 0.000000 0.000000 0.000000 -0.428173 2.606429 -0.561727 1.126590 -1.048044 -17.752271 0.000000 0.000000 0.000000 13.953154 -1.411134 -49.277247 0.000017 -65.959683 0.000017 0.000000 0.000000 0.000000 -0.428173 2.606429 -0.561727 0.200931 9.256943 16.560644 0.000000 0.000000 0.000000 15.588372 -11.980031 51.523160 0.000078 74.616224 -0.000084 0.000000 0.000000 0.000000 
-3.418784 28.445110 12.372473 0.000000 0.000000 0.000000 26.295974 -2.391605 -3.560064 -90.729487 12.057342 -5.829947 48.737559 -5.541919 0.249298 5.790324 9.434793 13.276973 -4.654271 0.000000 0.000007 0.000000 0.000000 0.000000 26.295974 -2.391605 -3.560064 9.066839 -12.167927 9.749806 11.853383 1.937601 -0.931046 -37.721789 -1.975083 2.657474 -11.100978 0.000061 0.000006 0.000000 0.000000 0.000000 26.295974 -2.391605 -3.560064 7.381850 4.728257 -5.610104 -0.812072 2.362466 -0.391804 0.000000 0.000000 0.000000 0.000000 0.000000 0.000000 -0.504755 2.921646 -0.531383 -12.492410 -0.647266 1.548404 -15.226744 4.555140 -1.599471 0.000000 0.000000 0.000000 -0.504755 2.921646 -0.531383 1.192361 -1.045140 -17.348103 0.000000 0.000000 0.000000 13.943626 -1.093287 -49.569487 0.000020 -65.747688 0.000042 0.000000 0.000000 0.000000 -0.504755 2.921646 -0.531383 0.233616 9.325077 16.091979 0.000000 0.000000 0.000000 16.386500 -12.134973 52.339275 0.000042 76.269314 -0.000010 0.000000 0.000000 0.000000 
